<?xml version="1.0" encoding="UTF-8" standalone="no" ?>
<!DOCTYPE svg PUBLIC "-//W3C//DTD SVG 1.1//EN" "http://www.w3.org/Graphics/SVG/1.1/DTD/svg11.dtd">
<svg xmlns="http://www.w3.org/2000/svg" xmlns:xlink="http://www.w3.org/1999/xlink" version="1.1" width="1080" height="1080" viewBox="0 0 1080 1080" xml:space="preserve">
<desc>Created with Fabric.js 5.2.4</desc>
<defs>
</defs>
<rect x="0" y="0" width="100%" height="100%" fill="transparent"></rect>
<g transform="matrix(1 0 0 1 540 540)" id="a5af58fe-4876-42dd-9879-1357d9771bf8"  >
</g>
<g transform="matrix(1 0 0 1 540 540)" id="ecbaa001-e808-4038-bb36-8262b75219a0"  >
<rect style="stroke: none; stroke-width: 1; stroke-dasharray: none; stroke-linecap: butt; stroke-dashoffset: 0; stroke-linejoin: miter; stroke-miterlimit: 4; fill: rgb(255,255,255); fill-rule: nonzero; opacity: 1; visibility: hidden;" vector-effect="non-scaling-stroke"  x="-540" y="-540" rx="0" ry="0" width="1080" height="1080" />
</g>
<g transform="matrix(1 0 0 1 540 540)"  >
<g style="" vector-effect="non-scaling-stroke"   >
		<g transform="matrix(1 0 0 1 60.3 -6)"  >
<circle style="stroke: none; stroke-width: 1; stroke-dasharray: none; stroke-linecap: butt; stroke-dashoffset: 0; stroke-linejoin: miter; stroke-miterlimit: 4; fill: rgb(242,242,242); fill-rule: nonzero; opacity: 1;" vector-effect="non-scaling-stroke"  cx="0" cy="0" r="373.0001" />
</g>
		<g transform="matrix(1 0 0 1 174.3 -243)"  >
<circle style="stroke: none; stroke-width: 1; stroke-dasharray: none; stroke-linecap: butt; stroke-dashoffset: 0; stroke-linejoin: miter; stroke-miterlimit: 4; fill: rgb(255,101,132); fill-rule: nonzero; opacity: 1;" vector-effect="non-scaling-stroke"  cx="0" cy="0" r="97.00003" />
</g>
		<g transform="matrix(1 0 0 1 -212.9 -254.28)"  >
<path style="stroke: none; stroke-width: 1; stroke-dasharray: none; stroke-linecap: butt; stroke-dashoffset: 0; stroke-linejoin: miter; stroke-miterlimit: 4; fill: rgb(4,109,181); fill-rule: nonzero; opacity: 1;" vector-effect="non-scaling-stroke"  transform=" translate(-387.1, -195.72)" d="M 367.65967 143.48288 L 370.31127 198.75939 C 381.30205 213.41839 393.15894 230.19331 404.86109999999996 248.47566 L 406.53187999999994 164.14566000000002 L 407.45387999999997 164.73486000000003 C 393.91760999999997 155.06507000000002 380.15745 147.66677 366.73774999999995 142.97051000000002 Z" stroke-linecap="round" />
</g>
		<g transform="matrix(1 0 0 1 -255.46 -283.34)"  >
<path style="stroke: none; stroke-width: 1; stroke-dasharray: none; stroke-linecap: butt; stroke-dashoffset: 0; stroke-linejoin: miter; stroke-miterlimit: 4; fill: rgb(4,109,181); fill-rule: nonzero; opacity: 1;" vector-effect="non-scaling-stroke"  transform=" translate(-344.53, -166.66)" d="M 368.3786 196.19132 L 365.8107 142.64651999999998 C 350.73922 137.50652 336.11578 135.80134999999999 322.74886 138.18518999999998 C 322.05341999999996 138.30924999999996 321.36985999999996 138.45197 320.68771 138.59680999999998 C 324.08421 142.24054 343.87658 163.76 368.3786 196.19132 Z" stroke-linecap="round" />
</g>
		<g transform="matrix(1 0 0 1 -127.52 -151.79)"  >
<path style="stroke: none; stroke-width: 1; stroke-dasharray: none; stroke-linecap: butt; stroke-dashoffset: 0; stroke-linejoin: miter; stroke-miterlimit: 4; fill: rgb(4,109,181); fill-rule: nonzero; opacity: 1;" vector-effect="non-scaling-stroke"  transform=" translate(-472.48, -298.21)" d="M 490.07183 262.13808 L 490.96135 262.98702000000003 Q 485.48235 252.68193000000002 479.34565 242.94881000000004 L 454.42112999999995 341.02119000000005 L 453.99934999999994 340.64940000000007 Q 456.7023499999999 347.10291000000007 459.14034999999996 353.46853000000004 Z" stroke-linecap="round" />
</g>
		<g transform="matrix(1 0 0 1 -170.14 -216.22)"  >
<path style="stroke: none; stroke-width: 1; stroke-dasharray: none; stroke-linecap: butt; stroke-dashoffset: 0; stroke-linejoin: miter; stroke-miterlimit: 4; fill: rgb(4,109,181); fill-rule: nonzero; opacity: 1;" vector-effect="non-scaling-stroke"  transform=" translate(-429.85, -233.78)" d="M 452.1018 206.38231 L 453.01964000000004 207.11685 C 439.8420898395559 191.50350742113702 424.8617075174686 177.505826320783 408.39151000000004 165.41629 L 406.68817 251.35311000000002 Q 423.02281 277.13120000000004 435.93755 302.13511 Z" stroke-linecap="round" />
</g>
		<g transform="matrix(1 0 0 1 -250.12 -187.77)"  >
<path style="stroke: none; stroke-width: 1; stroke-dasharray: none; stroke-linecap: butt; stroke-dashoffset: 0; stroke-linejoin: miter; stroke-miterlimit: 4; fill: rgb(4,109,181); fill-rule: nonzero; opacity: 1;" vector-effect="non-scaling-stroke"  transform=" translate(-349.88, -262.23)" d="M 271.298 233.21207 C 272.69831619411667 247.6968348389413 275.5584832907265 262.0030643793689 279.83493 275.91282 L 428.4666 291.24349 C 420.70734000000004 276.93497 412.69748000000004 263.51088 404.9216 251.27609 L 271.67588 234.38064 Z" stroke-linecap="round" />
</g>
		<g transform="matrix(1 0 0 1 -242.27 -159.38)"  >
<path style="stroke: none; stroke-width: 1; stroke-dasharray: none; stroke-linecap: butt; stroke-dashoffset: 0; stroke-linejoin: miter; stroke-miterlimit: 4; fill: rgb(4,109,181); fill-rule: nonzero; opacity: 1;" vector-effect="non-scaling-stroke"  transform=" translate(-357.73, -290.62)" d="M 285.24235 291.95331 L 284.84208 290.78693 L 435.27088000000003 304.15808 Q 432.54527 298.82597999999996 429.75820000000004 293.63548 L 280.578 278.24825 L 280.18584999999996 277.08015 Q 282.4412 284.43446 285.24235 291.95331 Z" stroke-linecap="round" />
</g>
		<g transform="matrix(1 0 0 1 -141.97 -176.85)"  >
<path style="stroke: none; stroke-width: 1; stroke-dasharray: none; stroke-linecap: butt; stroke-dashoffset: 0; stroke-linejoin: miter; stroke-miterlimit: 4; fill: rgb(4,109,181); fill-rule: nonzero; opacity: 1;" vector-effect="non-scaling-stroke"  transform=" translate(-458.03, -273.15)" d="M 477.65163 240.904 L 478.5562 241.70136 C 471.0980633610237 229.9716195190057 462.8569587806493 218.75848460476738 453.88903999999974 208.1383599999998 L 437.50640999999996 305.18606 Q 446.02340999999996 321.90786 452.93479999999994 338.15913 Z" stroke-linecap="round" />
</g>
		<g transform="matrix(1 0 0 1 -106.61 -54.56)"  >
<path style="stroke: none; stroke-width: 1; stroke-dasharray: none; stroke-linecap: butt; stroke-dashoffset: 0; stroke-linejoin: miter; stroke-miterlimit: 4; fill: rgb(4,109,181); fill-rule: nonzero; opacity: 1;" vector-effect="non-scaling-stroke"  transform=" translate(-493.39, -395.44)" d="M 474.47058 403.01786 C 480.44905 428.88849 482.71425 453.34968 481.21891 476.13117 C 489.63106 458.20745 521.62232 383.95375 509.6638 314.75173 Z" stroke-linecap="round" />
</g>
		<g transform="matrix(1 0 0 1 -207.46 -77.39)"  >
<path style="stroke: none; stroke-width: 1; stroke-dasharray: none; stroke-linecap: butt; stroke-dashoffset: 0; stroke-linejoin: miter; stroke-miterlimit: 4; fill: rgb(4,109,181); fill-rule: nonzero; opacity: 1;" vector-effect="non-scaling-stroke"  transform=" translate(-392.54, -372.6)" d="M 312.8378 344.25615 C 320.7974676918286 354.97786514265954 329.4666193827676 365.15417945026627 338.78700000000003 374.71671000000003 L 338.424 373.42051999999995 L 472.235 400.9488 C 468.753781245897 386.502777110324 464.40926101435207 372.2785520082423 459.22484 358.35274000000004 Z" stroke-linecap="round" />
</g>
		<g transform="matrix(1 0 0 1 -277.55 -282.06)"  >
<path style="stroke: none; stroke-width: 1; stroke-dasharray: none; stroke-linecap: butt; stroke-dashoffset: 0; stroke-linejoin: miter; stroke-miterlimit: 4; fill: rgb(4,109,181); fill-rule: nonzero; opacity: 1;" vector-effect="non-scaling-stroke"  transform=" translate(-322.45, -167.94)" d="M 367.22384 197.09429 C 340.70547 162.01258 319.78146 139.83942000000002 319.4804 139.52203 L 319.8252 138.78297 C 299.70169 143.35149 285.4934 157.04297 277.67566999999997 176.86038000000002 Z" stroke-linecap="round" />
</g>
		<g transform="matrix(1 0 0 1 -115.18 -118.26)"  >
<path style="stroke: none; stroke-width: 1; stroke-dasharray: none; stroke-linecap: butt; stroke-dashoffset: 0; stroke-linejoin: miter; stroke-miterlimit: 4; fill: rgb(4,109,181); fill-rule: nonzero; opacity: 1;" vector-effect="non-scaling-stroke"  transform=" translate(-484.82, -331.75)" d="M 460.37863 356.7603 C 460.87268 358.07996999999995 461.37532 359.40272 461.85228 360.71644999999995 C 466.4479152585335 373.30614493858013 470.35465763822026 386.1367255146871 473.55516 399.1512199999996 L 508.41456 311.72180999999995 L 509.266 312.57580999999993 C 507.0590226617954 300.4099784265722 503.3195327949533 288.5727887945785 498.13685999999996 277.3470099999999 Q 495.05247 270.7445799999999 491.67928 264.34133999999995 Z" stroke-linecap="round" />
</g>
		<g transform="matrix(1 0 0 1 -263.01 -236.65)"  >
<path style="stroke: none; stroke-width: 1; stroke-dasharray: none; stroke-linecap: butt; stroke-dashoffset: 0; stroke-linejoin: miter; stroke-miterlimit: 4; fill: rgb(4,109,181); fill-rule: nonzero; opacity: 1;" vector-effect="non-scaling-stroke"  transform=" translate(-336.99, -213.35)" d="M 403.36439 248.83838 C 391.78239 230.77178 380.05963 214.19853 369.19456 199.71201 L 277.59182000000004 179.01317999999998 L 277.28130000000004 177.85708999999997 C 271.56275000000005 192.91669999999996 269.47184000000004 211.41722999999996 271.20385000000005 232.08049999999997 Z" stroke-linecap="round" />
</g>
		<g transform="matrix(1 0 0 1 -190.11 -22.02)"  >
<path style="stroke: none; stroke-width: 1; stroke-dasharray: none; stroke-linecap: butt; stroke-dashoffset: 0; stroke-linejoin: miter; stroke-miterlimit: 4; fill: rgb(4,109,181); fill-rule: nonzero; opacity: 1;" vector-effect="non-scaling-stroke"  transform=" translate(-409.88, -427.98)" d="M 472.777 403.2453 L 339.94528 375.9183 C 395.81693 433.273 473.985 477.25955 478.97431 480.0399 C 481.302 454.77022 478.662 428.814 472.777 403.2453 Z" stroke-linecap="round" />
</g>
		<g transform="matrix(1 0 0 1 -228 -125.44)"  >
<path style="stroke: none; stroke-width: 1; stroke-dasharray: none; stroke-linecap: butt; stroke-dashoffset: 0; stroke-linejoin: miter; stroke-miterlimit: 4; fill: rgb(4,109,181); fill-rule: nonzero; opacity: 1;" vector-effect="non-scaling-stroke"  transform=" translate(-372, -324.56)" d="M 458.28368 355.998 L 458.31331 355.91053 C 451.9265961071806 339.0722697923226 444.637602271676 322.5902210006663 436.4779999999999 306.5359999999997 L 285.679 293.13178 Q 289.51939 303.30132 294.35958999999997 313.68871 C 299.0595147195262 323.5544397835434 304.64952580946886 332.9709127692751 311.06015 341.8211 Z" stroke-linecap="round" />
</g>
		<g transform="matrix(1 0 0 1 39.49 -68.52)"  >
<path style="stroke: none; stroke-width: 1; stroke-dasharray: none; stroke-linecap: butt; stroke-dashoffset: 0; stroke-linejoin: miter; stroke-miterlimit: 4; fill: rgb(4,109,181); fill-rule: nonzero; opacity: 1;" vector-effect="non-scaling-stroke"  transform=" translate(-639.5, -381.47)" d="M 650.10683 329.66974 L 616.89289 373.93435999999997 C 616.00815 392.23463 614.44089 412.71702999999997 611.79301 434.26171999999997 L 666.86675 370.3773 L 667.2010700000001 371.41917 C 662.94307 355.33795000000003 657.06393 340.86342 649.72356 328.68717000000004 Z" stroke-linecap="round" />
</g>
		<g transform="matrix(1 0 0 1 33.13 -116.66)"  >
<path style="stroke: none; stroke-width: 1; stroke-dasharray: none; stroke-linecap: butt; stroke-dashoffset: 0; stroke-linejoin: miter; stroke-miterlimit: 4; fill: rgb(4,109,181); fill-rule: nonzero; opacity: 1;" vector-effect="non-scaling-stroke"  transform=" translate(-633.13, -333.34)" d="M 617.04232 370.72377 L 649.21622 327.84629 C 640.88667 314.27472 630.71146 303.63429 618.89594 296.94473 C 618.2812 296.59673 617.66368 296.27064 617.04594 295.94712 C 617.33785 300.91982 618.85627 330.11778 617.04232 370.72377 Z" stroke-linecap="round" />
</g>
		<g transform="matrix(1 0 0 1 29.66 63.63)"  >
<path style="stroke: none; stroke-width: 1; stroke-dasharray: none; stroke-linecap: butt; stroke-dashoffset: 0; stroke-linejoin: miter; stroke-miterlimit: 4; fill: rgb(4,109,181); fill-rule: nonzero; opacity: 1;" vector-effect="non-scaling-stroke"  transform=" translate(-629.66, -513.63)" d="M 668.70734 499.13305 L 668.8509700000001 500.35424 Q 671.20387 488.92282 672.6853500000001 477.51236 L 590.9367100000001 537.14945 L 590.8489800000001 536.59408 Q 588.8146300000001 543.2884899999999 586.63232 549.74626 Z" stroke-linecap="round" />
</g>
		<g transform="matrix(1 0 0 1 38.38 -16.03)"  >
<path style="stroke: none; stroke-width: 1; stroke-dasharray: none; stroke-linecap: butt; stroke-dashoffset: 0; stroke-linejoin: miter; stroke-miterlimit: 4; fill: rgb(4,109,181); fill-rule: nonzero; opacity: 1;" vector-effect="non-scaling-stroke"  transform=" translate(-638.38, -433.98)" d="M 675.02508 431.97269 L 675.26349 433.12383 C 675.0727030406578 412.6937600084043 672.4629023605337 392.3581820451513 667.4886200000001 372.54201 L 611.3649300000001 437.64323 Q 607.5040500000001 467.91574 601.5029800000001 495.41068 Z" stroke-linecap="round" />
</g>
		<g transform="matrix(1 0 0 1 -45.97 -40.21)"  >
<path style="stroke: none; stroke-width: 1; stroke-dasharray: none; stroke-linecap: butt; stroke-dashoffset: 0; stroke-linejoin: miter; stroke-miterlimit: 4; fill: rgb(4,109,181); fill-rule: nonzero; opacity: 1;" vector-effect="non-scaling-stroke"  transform=" translate(-554.03, -409.79)" d="M 518.65944 337.31729 C 510.4993430926386 349.3664647105431 503.5774841918947 362.20924981901686 497.9993099999999 375.6500000000001 L 602.69576 482.257 C 605.8458499999999 466.28775 608.2388199999999 450.83985 610.05346 436.45717 L 518.20516 338.45835 Z" stroke-linecap="round" />
</g>
		<g transform="matrix(1 0 0 1 -52.95 -13.34)"  >
<path style="stroke: none; stroke-width: 1; stroke-dasharray: none; stroke-linecap: butt; stroke-dashoffset: 0; stroke-linejoin: miter; stroke-miterlimit: 4; fill: rgb(4,109,181); fill-rule: nonzero; opacity: 1;" vector-effect="non-scaling-stroke"  transform=" translate(-547.05, -436.66)" d="M 491.9332 391.45311 L 492.36885 390.29947999999996 L 599.69922 496.54355 Q 601.0008899999999 490.6984 602.16489 484.92309 L 497.08207 377.92263 L 497.52506999999997 376.77286000000004 Q 494.57142 383.87556 491.9332 391.45311 Z" stroke-linecap="round" />
</g>
		<g transform="matrix(1 0 0 1 33.46 34.24)"  >
<path style="stroke: none; stroke-width: 1; stroke-dasharray: none; stroke-linecap: butt; stroke-dashoffset: 0; stroke-linejoin: miter; stroke-miterlimit: 4; fill: rgb(4,109,181); fill-rule: nonzero; opacity: 1;" vector-effect="non-scaling-stroke"  transform=" translate(-633.46, -484.23)" d="M 672.68482 474.857 L 672.87294 476.04807000000005 C 674.610177262683 462.25702127406777 675.4148816417429 448.36446733492335 675.2815700000001 434.4650700000002 L 600.76535 498.7610700000001 Q 596.65961 517.0723100000001 591.61742 533.9970700000001 Z" stroke-linecap="round" />
</g>
		<g transform="matrix(1 0 0 1 -12.18 155.23)"  >
<path style="stroke: none; stroke-width: 1; stroke-dasharray: none; stroke-linecap: butt; stroke-dashoffset: 0; stroke-linejoin: miter; stroke-miterlimit: 4; fill: rgb(4,109,181); fill-rule: nonzero; opacity: 1;" vector-effect="non-scaling-stroke"  transform=" translate(-587.82, -605.23)" d="M 566.83618 597.68648 C 554.94005 621.4249299999999 541.08297 641.70948 525.4009 658.30178 C 543.3118999999999 649.86251 615.31133 613.07759 650.23909 552.1516 Z" stroke-linecap="round" />
</g>
		<g transform="matrix(1 0 0 1 -68.5 72.01)"  >
<path style="stroke: none; stroke-width: 1; stroke-dasharray: none; stroke-linecap: butt; stroke-dashoffset: 0; stroke-linejoin: miter; stroke-miterlimit: 4; fill: rgb(4,109,181); fill-rule: nonzero; opacity: 1;" vector-effect="non-scaling-stroke"  transform=" translate(-531.49, -522)" d="M 479.8274 449.337 C 479.11938146506327 462.671550388654 479.3056653963994 476.0385583396533 480.385 489.3482 L 480.93210999999997 488.11832000000004 L 566.434 594.667 C 572.9666914339261 581.320451881765 578.6930125425928 567.5941040916246 583.5821199999999 553.5618900000002 Z" stroke-linecap="round" />
</g>
		<g transform="matrix(1 0 0 1 -12.03 -119.99)"  >
<path style="stroke: none; stroke-width: 1; stroke-dasharray: none; stroke-linecap: butt; stroke-dashoffset: 0; stroke-linejoin: miter; stroke-miterlimit: 4; fill: rgb(4,109,181); fill-rule: nonzero; opacity: 1;" vector-effect="non-scaling-stroke"  transform=" translate(-587.98, -330.01)" d="M 615.577 370.68271 C 617.52847 326.74933 615.55539 296.32614 615.52595 295.88971 L 616.2629 295.54042 C 597.85011 286.22397 578.1744299999999 287.70669999999996 559.51342 297.98364 Z" stroke-linecap="round" />
</g>
		<g transform="matrix(1 0 0 1 18.57 97.99)"  >
<path style="stroke: none; stroke-width: 1; stroke-dasharray: none; stroke-linecap: butt; stroke-dashoffset: 0; stroke-linejoin: miter; stroke-miterlimit: 4; fill: rgb(4,109,181); fill-rule: nonzero; opacity: 1;" vector-effect="non-scaling-stroke"  transform=" translate(-618.57, -547.99)" d="M 585.48647 553.07133 C 585.0252700000001 554.40284 584.56874 555.7422 584.09816 557.05824 C 579.6077784268203 569.6858570809372 574.4331761026309 582.0596149614622 568.59733 594.12457 L 651.20946 549.0211999999999 L 651.3205700000001 550.2219599999999 C 657.3803264072849 539.4443212645727 662.0501474538709 527.9423411241436 665.2184800000001 515.9907799999999 Q 667.0540300000001 508.9383799999999 668.5401300000001 501.8552099999999 Z" stroke-linecap="round" />
</g>
		<g transform="matrix(1 0 0 1 -32.63 -83.96)"  >
<path style="stroke: none; stroke-width: 1; stroke-dasharray: none; stroke-linecap: butt; stroke-dashoffset: 0; stroke-linejoin: miter; stroke-miterlimit: 4; fill: rgb(4,109,181); fill-rule: nonzero; opacity: 1;" vector-effect="non-scaling-stroke"  transform=" translate(-567.37, -366.04)" d="M 610.40891 433.58646 C 613.01175 412.2846 614.55365 392.04308 615.42521 373.95581 L 558.07576 299.58817999999997 L 558.5739699999999 298.49971999999997 C 544.56436 306.45108999999997 531.1540499999999 319.36639999999994 519.3086699999999 336.38572 Z" stroke-linecap="round" />
</g>
		<g transform="matrix(1 0 0 1 -77.05 125.44)"  >
<path style="stroke: none; stroke-width: 1; stroke-dasharray: none; stroke-linecap: butt; stroke-dashoffset: 0; stroke-linejoin: miter; stroke-miterlimit: 4; fill: rgb(4,109,181); fill-rule: nonzero; opacity: 1;" vector-effect="non-scaling-stroke"  transform=" translate(-522.95, -575.45)" d="M 565.38675 596.78148 L 480.51075000000003 491.01248 C 486.96083000000004 570.82221 519.1097500000001 654.557 521.17912 659.88065 C 539.08922 641.90278 553.61125 620.22775 565.38675 596.78148 Z" stroke-linecap="round" />
</g>
		<g transform="matrix(1 0 0 1 -60.44 21.89)"  >
<path style="stroke: none; stroke-width: 1; stroke-dasharray: none; stroke-linecap: butt; stroke-dashoffset: 0; stroke-linejoin: miter; stroke-miterlimit: 4; fill: rgb(4,109,181); fill-rule: nonzero; opacity: 1;" vector-effect="non-scaling-stroke"  transform=" translate(-539.56, -471.89)" d="M 584.35918 551.148 L 584.4378 551.0995300000001 C 590.2585056547828 534.0573340593211 595.1570872914473 516.7140011228099 599.11226 499.1448900000002 L 491.51789 392.63924 Q 487.98944 402.92116999999996 485.09207000000004 414.00858 C 482.41939536000046 424.60474476684135 480.71879697691287 435.4226064672468 480.01141 446.3277200000001 Z" stroke-linecap="round" />
</g>
		<g transform="matrix(1 0 0 1 -247.67 -17.15)"  >
<path style="stroke: none; stroke-width: 1; stroke-dasharray: none; stroke-linecap: butt; stroke-dashoffset: 0; stroke-linejoin: miter; stroke-miterlimit: 4; fill: rgb(4,109,181); fill-rule: nonzero; opacity: 1;" vector-effect="non-scaling-stroke"  transform=" translate(-352.33, -432.84)" d="M 318.93481 388.76732 L 338.54237 440.51736999999997 C 353.52597000000003 451.06127999999995 369.98737 463.34984999999995 386.76745 477.11981999999995 L 362.29028 396.403 L 363.34928 396.67836 C 347.48697000000004 391.66611 332.11385 388.88336 317.89971 388.56502 Z" stroke-linecap="round" />
</g>
		<g transform="matrix(1 0 0 1 -295.67 -36.4)"  >
<path style="stroke: none; stroke-width: 1; stroke-dasharray: none; stroke-linecap: butt; stroke-dashoffset: 0; stroke-linejoin: miter; stroke-miterlimit: 4; fill: rgb(4,109,181); fill-rule: nonzero; opacity: 1;" vector-effect="non-scaling-stroke"  transform=" translate(-304.33, -413.6)" d="M 335.91055 438.67244 L 316.91787 388.54344 C 300.99568 388.31372999999996 286.56127 391.21207999999996 274.58576 397.61086 C 273.96276 397.9438 273.35676 398.29086 272.75275999999997 398.63942000000003 C 277.10922 401.05486 302.584 415.4028 335.91055 438.67244 Z" stroke-linecap="round" />
</g>
		<g transform="matrix(1 0 0 1 -135.48 54.52)"  >
<path style="stroke: none; stroke-width: 1; stroke-dasharray: none; stroke-linecap: butt; stroke-dashoffset: 0; stroke-linejoin: miter; stroke-miterlimit: 4; fill: rgb(4,109,181); fill-rule: nonzero; opacity: 1;" vector-effect="non-scaling-stroke"  transform=" translate(-464.52, -504.52)" d="M 472.02847 463.77482 L 473.13683000000003 464.30724 Q 464.7409 456.20031 455.8962 448.84067 L 462.50609000000003 549.81459 L 461.99009 549.59138 Q 466.55544000000003 554.89338 470.84172 560.19368 Z" stroke-linecap="round" />
</g>
		<g transform="matrix(1 0 0 1 -201.32 7.79)"  >
<path style="stroke: none; stroke-width: 1; stroke-dasharray: none; stroke-linecap: butt; stroke-dashoffset: 0; stroke-linejoin: miter; stroke-miterlimit: 4; fill: rgb(4,109,181); fill-rule: nonzero; opacity: 1;" vector-effect="non-scaling-stroke"  transform=" translate(-398.68, -457.79)" d="M 418.68387 422.4858 L 419.78381 422.90067 C 402.42552579243426 412.12504181692566 383.8520873681351 403.44320900747886 364.4515899999998 397.03657999999996 L 389.39446 479.29158 Q 412.89714 498.75835 432.90806 518.54591 Z" stroke-linecap="round" />
</g>
		<g transform="matrix(1 0 0 1 -261.27 60.81)"  >
<path style="stroke: none; stroke-width: 1; stroke-dasharray: none; stroke-linecap: butt; stroke-dashoffset: 0; stroke-linejoin: miter; stroke-miterlimit: 4; fill: rgb(4,109,181); fill-rule: nonzero; opacity: 1;" vector-effect="non-scaling-stroke"  transform=" translate(-338.73, -510.81)" d="M 255.02691 503.88762 C 260.8358495692944 517.2302468313627 267.97796676688966 529.9518462698483 276.34446 541.85862 L 422.4364 510.49694 C 410.63439999999997 499.28746 398.8674 488.99657 387.6906 479.76441 L 255.74751 504.88216 Z" stroke-linecap="round" />
</g>
		<g transform="matrix(1 0 0 1 -245.03 83.9)"  >
<path style="stroke: none; stroke-width: 1; stroke-dasharray: none; stroke-linecap: butt; stroke-dashoffset: 0; stroke-linejoin: miter; stroke-miterlimit: 4; fill: rgb(4,109,181); fill-rule: nonzero; opacity: 1;" vector-effect="non-scaling-stroke"  transform=" translate(-354.97, -533.91)" d="M 286.44517 555.44218 L 285.70398 554.45663 L 432.89934 520.67593 Q 428.65908 516.44741 424.40412 512.37257 L 277.77305 543.85 L 277.03905000000003 542.86032 Q 281.45714 549.15735 286.44517 555.44218 Z" stroke-linecap="round" />
</g>
		<g transform="matrix(1 0 0 1 -159.43 35.57)"  >
<path style="stroke: none; stroke-width: 1; stroke-dasharray: none; stroke-linecap: butt; stroke-dashoffset: 0; stroke-linejoin: miter; stroke-miterlimit: 4; fill: rgb(4,109,181); fill-rule: nonzero; opacity: 1;" vector-effect="non-scaling-stroke"  transform=" translate(-440.57, -485.58)" d="M 453.6531 447.41964 L 454.75983 447.89836 C 444.0412877311403 439.04827011736364 432.73779757097566 430.9315012557429 420.92637999999994 423.60335999999995 L 435.34314 520.9625100000001 Q 448.61171 534.2329000000001 460.20789 547.55204 Z" stroke-linecap="round" />
</g>
		<g transform="matrix(1 0 0 1 -83.5 138.89)"  >
<path style="stroke: none; stroke-width: 1; stroke-dasharray: none; stroke-linecap: butt; stroke-dashoffset: 0; stroke-linejoin: miter; stroke-miterlimit: 4; fill: rgb(4,109,181); fill-rule: nonzero; opacity: 1;" vector-effect="non-scaling-stroke"  transform=" translate(-516.49, -588.89)" d="M 500.73671 602.57809 C 514.41894 625.3339199999999 524.1341 647.8970899999999 529.7537100000001 670.0251999999999 C 532.2137100000001 650.37902 539.6868300000001 569.8730899999999 506.9237800000001 507.7561999999999 Z" stroke-linecap="round" />
</g>
		<g transform="matrix(1 0 0 1 -186.58 141.2)"  >
<path style="stroke: none; stroke-width: 1; stroke-dasharray: none; stroke-linecap: butt; stroke-dashoffset: 0; stroke-linejoin: miter; stroke-miterlimit: 4; fill: rgb(4,109,181); fill-rule: nonzero; opacity: 1;" vector-effect="non-scaling-stroke"  transform=" translate(-413.41, -591.21)" d="M 328.85594 596.6541 C 339.73987611756445 604.3904729669852 351.12997265513377 611.3888522939769 362.94968999999986 617.60221 L 362.20376999999996 616.48171 L 497.971 601.30138 C 490.1950394880585 588.6388015239409 481.6666072848622 576.4540045737158 472.43163999999985 564.8126199999998 Z" stroke-linecap="round" />
</g>
		<g transform="matrix(1 0 0 1 -310.62 -26.3)"  >
<path style="stroke: none; stroke-width: 1; stroke-dasharray: none; stroke-linecap: butt; stroke-dashoffset: 0; stroke-linejoin: miter; stroke-miterlimit: 4; fill: rgb(4,109,181); fill-rule: nonzero; opacity: 1;" vector-effect="non-scaling-stroke"  transform=" translate(-289.38, -423.7)" d="M 335.09144 439.88812 C 299.02801999999997 414.72112000000004 272.27499 400.10129 271.89056999999997 399.89249 L 271.99005 399.08305 C 254.26405 409.64797 244.98354 427.06067 243.67416 448.32412 Z" stroke-linecap="round" />
</g>
		<g transform="matrix(1 0 0 1 -110.54 82.28)"  >
<path style="stroke: none; stroke-width: 1; stroke-dasharray: none; stroke-linecap: butt; stroke-dashoffset: 0; stroke-linejoin: miter; stroke-miterlimit: 4; fill: rgb(4,109,181); fill-rule: nonzero; opacity: 1;" vector-effect="non-scaling-stroke"  transform=" translate(-489.45, -532.28)" d="M 473.03677 562.94151 C 473.91452 564.04386 474.80142 565.14651 475.66107999999997 566.24844 C 483.9231251606389 576.8011234978918 491.604467732916 587.7958335548648 498.6709999999999 599.1837499999998 L 504.79919 505.26075000000003 L 505.87289 505.80975 C 500.0135658765304 494.9218476533138 492.79835996942177 484.82018775754744 484.39963 475.74608 Q 479.42548 470.42035 474.23827 465.37331 Z" stroke-linecap="round" />
</g>
		<g transform="matrix(1 0 0 1 -285.51 22.31)"  >
<path style="stroke: none; stroke-width: 1; stroke-dasharray: none; stroke-linecap: butt; stroke-dashoffset: 0; stroke-linejoin: miter; stroke-miterlimit: 4; fill: rgb(4,109,181); fill-rule: nonzero; opacity: 1;" vector-effect="non-scaling-stroke"  transform=" translate(-314.48, -472.3)" d="M 385.45615 477.92741 C 368.85702 464.32547 352.58554 452.18728 337.77479 441.76851 L 244.25984 450.39742 L 243.60718 449.39392000000004 C 242.82354 465.48365 246.55349 483.72451 254.58763 502.84056000000004 Z" stroke-linecap="round" />
</g>
		<g transform="matrix(1 0 0 1 -153.38 188.88)"  >
<path style="stroke: none; stroke-width: 1; stroke-dasharray: none; stroke-linecap: butt; stroke-dashoffset: 0; stroke-linejoin: miter; stroke-miterlimit: 4; fill: rgb(4,109,181); fill-rule: nonzero; opacity: 1;" vector-effect="non-scaling-stroke"  transform=" translate(-446.62, -638.88)" d="M 499.19639 603.31787 L 364.42267 618.38692 C 435.28643999999997 655.66321 523.22278 673.3343 528.82717 674.43631 C 523.23008 649.6846 512.69641 625.81541 499.19639 603.31787 Z" stroke-linecap="round" />
</g>
		<g transform="matrix(1 0 0 1 -220.99 108.72)"  >
<path style="stroke: none; stroke-width: 1; stroke-dasharray: none; stroke-linecap: butt; stroke-dashoffset: 0; stroke-linejoin: miter; stroke-miterlimit: 4; fill: rgb(4,109,181); fill-rule: nonzero; opacity: 1;" vector-effect="non-scaling-stroke"  transform=" translate(-379.02, -558.73)" d="M 470.80878 562.86414 L 470.80993 562.77179 C 459.5313096578714 548.7322063444775 447.5046973157185 535.3102830730143 434.78235 522.5643399999999 L 287.22473 556.428 Q 294.02042 564.91248 301.83432000000005 573.29512 C 309.3535557912174 581.2249980088288 317.5804273067727 588.4524960800103 326.41269000000005 594.88779 Z" stroke-linecap="round" />
</g>
		<g transform="matrix(1 0 0 1 4.3 297.82)"  >
<path style="stroke: none; stroke-width: 1; stroke-dasharray: none; stroke-linecap: butt; stroke-dashoffset: 0; stroke-linejoin: miter; stroke-miterlimit: 4; fill: rgb(63,61,86); fill-rule: nonzero; opacity: 1;" vector-effect="non-scaling-stroke"  transform=" translate(-604.3, -747.82)" d="M 1118.304 705.00067 C 1118.304 749.73574 888.1783600000001 829.00067 604.3040000000001 829.00067 C 320.42964000000006 829.00067 90.30400000000009 749.73574 90.30400000000009 705.00067 C 90.30400000000009 660.2656000000001 320.42964000000006 667.00067 604.3040000000001 667.00067 C 888.1783600000001 667.00067 1118.304 660.26561 1118.304 705.00067 Z" stroke-linecap="round" />
</g>
		<g transform="matrix(1 0 0 1 4.3 297.82)"  >
<path style="stroke: none; stroke-width: 1; stroke-dasharray: none; stroke-linecap: butt; stroke-dashoffset: 0; stroke-linejoin: miter; stroke-miterlimit: 4; fill: rgb(0,0,0); fill-rule: nonzero; opacity: 0.1;" vector-effect="non-scaling-stroke"  transform=" translate(-604.3, -747.82)" d="M 1118.304 705.00067 C 1118.304 749.73574 888.1783600000001 829.00067 604.3040000000001 829.00067 C 320.42964000000006 829.00067 90.30400000000009 749.73574 90.30400000000009 705.00067 C 90.30400000000009 660.2656000000001 320.42964000000006 667.00067 604.3040000000001 667.00067 C 888.1783600000001 667.00067 1118.304 660.26561 1118.304 705.00067 Z" stroke-linecap="round" />
</g>
		<g transform="matrix(1 0 0 1 4.3 255)"  >
<ellipse style="stroke: none; stroke-width: 1; stroke-dasharray: none; stroke-linecap: butt; stroke-dashoffset: 0; stroke-linejoin: miter; stroke-miterlimit: 4; fill: rgb(63,61,86); fill-rule: nonzero; opacity: 1;" vector-effect="non-scaling-stroke"  cx="0" cy="0" rx="514" ry="81" />
</g>
		<g transform="matrix(1 0 0 1 -57.19 158.6)"  >
<path style="stroke: none; stroke-width: 1; stroke-dasharray: none; stroke-linecap: butt; stroke-dashoffset: 0; stroke-linejoin: miter; stroke-miterlimit: 4; fill: rgb(0,0,0); fill-rule: nonzero; opacity: 0.1;" vector-effect="non-scaling-stroke"  transform=" translate(-542.81, -608.6)" d="M 693.41688 620.33814 C 693.41688 669.07562 625.48263 654.0006699999999 542.304 654.0006699999999 C 459.12537 654.0006699999999 392.20041 669.0756199999998 392.20041 620.33814 C 392.20041 571.6006600000001 460.12541 561.0006699999999 543.304 561.0006699999999 C 626.48259 561.0006699999999 693.41688 571.60066 693.41688 620.33814 Z" stroke-linecap="round" />
</g>
		<g transform="matrix(1 0 0 1 -57.19 146.6)"  >
<path style="stroke: none; stroke-width: 1; stroke-dasharray: none; stroke-linecap: butt; stroke-dashoffset: 0; stroke-linejoin: miter; stroke-miterlimit: 4; fill: rgb(63,61,86); fill-rule: nonzero; opacity: 1;" vector-effect="non-scaling-stroke"  transform=" translate(-542.81, -596.6)" d="M 693.41688 608.33814 C 693.41688 657.07562 625.48263 642.0006699999999 542.304 642.0006699999999 C 459.12537 642.0006699999999 392.20041 657.0756199999998 392.20041 608.33814 C 392.20041 559.6006600000001 460.12541 549.0006699999999 543.304 549.0006699999999 C 626.48259 549.0006699999999 693.41688 559.60066 693.41688 608.33814 Z" stroke-linecap="round" />
</g>
		<g transform="matrix(1 0 0 1 -131.41 26.94)"  >
<path style="stroke: none; stroke-width: 1; stroke-dasharray: none; stroke-linecap: butt; stroke-dashoffset: 0; stroke-linejoin: miter; stroke-miterlimit: 4; fill: rgb(47,46,65); fill-rule: nonzero; opacity: 1;" vector-effect="non-scaling-stroke"  transform=" translate(-468.59, -476.94)" d="M 425.83407 474.23234 C 427.6636793461196 472.9301374032974 429.68294137139975 471.91750284645315 431.82084 471.23005 C 445.3755008542968 466.186576081546 459.5780963156631 463.094896215518 474.0026899999999 462.04773 C 486.54533999999995 461.15831000000003 500.13933999999995 462.21473 509.9358 470.0975 C 511.45957155672534 471.2155987796461 512.7065277489629 472.6683671283234 513.5807199999999 474.34402 C 514.8131999999999 477.00361 514.43972 480.09511 514.04072 482.99911 C 513.951280828314 484.1255377742477 513.6673092538999 485.2279453962199 513.20141 486.25739999999996 C 511.88314 488.76739999999995 508.63749 489.64667 505.81841000000003 489.34569999999997 C 502.99933000000004 489.04472999999996 500.35402000000005 487.85193999999996 497.57341 487.29891 C 495.8523267530786 486.9989304064287 494.11209224409697 486.8217035450905 492.36587000000003 486.76856999999995 L 474.92619 485.82442999999995 C 464.08157 485.23731999999995 453.09405000000004 484.65998999999994 442.45637 486.84865999999994 C 439.1816428535214 487.437281793457 436.017349907514 488.5276809272009 433.07518 490.08136999999994 C 430.64549999999997 491.4454999999999 429.00941 493.4029299999999 426.75493 490.88336999999996 C 422.79407 486.45675 420.60169 478.321 425.83407 474.23234 Z" stroke-linecap="round" />
</g>
		<g transform="matrix(1 0 0 1 -131.89 36.71)"  >
<path style="stroke: none; stroke-width: 1; stroke-dasharray: none; stroke-linecap: butt; stroke-dashoffset: 0; stroke-linejoin: miter; stroke-miterlimit: 4; fill: rgb(242,242,242); fill-rule: nonzero; opacity: 1;" vector-effect="non-scaling-stroke"  transform=" translate(-468.11, -486.71)" d="M 452.8586 481.94446 C 452.8586 481.94446 476.3156 471.42923 485.21315000000004 483.56218 C 494.11070000000007 495.69513 480.36 490.842 480.36 490.842 L 464.99159000000003 495.69518 L 448.00545000000005 492.45973 Z" stroke-linecap="round" />
</g>
		<g transform="matrix(1 0 0 1 -130.97 35.18)"  >
<path style="stroke: none; stroke-width: 1; stroke-dasharray: none; stroke-linecap: butt; stroke-dashoffset: 0; stroke-linejoin: miter; stroke-miterlimit: 4; fill: rgb(255,185,185); fill-rule: nonzero; opacity: 1;" vector-effect="non-scaling-stroke"  transform=" translate(-469.04, -485.18)" d="M 454.07189 474.26025 C 454.07189 474.26025 457.30735 489.62865999999997 454.88076 493.67298 C 452.45417000000003 497.7173 468.63144 503.37935 468.63144 503.37935 L 483.99986 496.90844 C 483.99986 496.90844 479.95554 471.83366 483.99986 466.98044 Z" stroke-linecap="round" />
</g>
		<g transform="matrix(1 0 0 1 -130.97 35.18)"  >
<path style="stroke: none; stroke-width: 1; stroke-dasharray: none; stroke-linecap: butt; stroke-dashoffset: 0; stroke-linejoin: miter; stroke-miterlimit: 4; fill: rgb(0,0,0); fill-rule: nonzero; opacity: 0.1;" vector-effect="non-scaling-stroke"  transform=" translate(-469.04, -485.18)" d="M 454.07189 474.26025 C 454.07189 474.26025 457.30735 489.62865999999997 454.88076 493.67298 C 452.45417000000003 497.7173 468.63144 503.37935 468.63144 503.37935 L 483.99986 496.90844 C 483.99986 496.90844 479.95554 471.83366 483.99986 466.98044 Z" stroke-linecap="round" />
</g>
		<g transform="matrix(1 0 0 1 -152.76 208.32)"  >
<path style="stroke: none; stroke-width: 1; stroke-dasharray: none; stroke-linecap: butt; stroke-dashoffset: 0; stroke-linejoin: miter; stroke-miterlimit: 4; fill: rgb(87,90,137); fill-rule: nonzero; opacity: 1;" vector-effect="non-scaling-stroke"  transform=" translate(-447.24, -658.32)" d="M 438.91514 659.055 C 441.08998012538507 663.5645566907206 442.8781154326399 668.250580845563 444.26029 673.06261 C 444.30616545230623 673.3840328605754 444.48696668801625 673.6706260338908 444.75730537379377 673.8504431837873 C 445.0276440595713 674.0302603336838 445.361848489537 674.086225794609 445.67602 674.00429 L 460.06351 673.98829 C 461.83903 673.98629 464.22123 673.41589 464.20277 671.64046 C 464.18977 670.39302 462.91465 669.61519 461.96565 668.8054599999999 C 459.33189999999996 666.5581699999999 458.64621999999997 662.8527099999999 457.55541 659.5668199999999 C 455.4352374259072 653.2368772042751 451.3494247579571 647.749197079058 445.89313 643.9031399999999 C 445.1554358708517 643.3256309358338 444.30675182251423 642.9061685190119 443.39992 642.6708699999999 C 442.48796383476065 642.538632863073 441.5588162110414 642.5890435576648 440.66652 642.8191699999999 C 438.14094 643.3287199999999 428.70952 645.0721699999999 430.49116 648.7457799999999 C 431.25829 650.3275299999999 434.10130999999996 651.9740699999999 435.29326 653.4517299999999 C 436.68240823852403 655.1954563293145 437.89561164529493 657.0723562412545 438.91514 659.055 Z" stroke-linecap="round" />
</g>
		<g transform="matrix(1 0 0 1 -106.99 202.52)"  >
<path style="stroke: none; stroke-width: 1; stroke-dasharray: none; stroke-linecap: butt; stroke-dashoffset: 0; stroke-linejoin: miter; stroke-miterlimit: 4; fill: rgb(87,90,137); fill-rule: nonzero; opacity: 1;" vector-effect="non-scaling-stroke"  transform=" translate(-493, -652.52)" d="M 488.94606 642.36827 C 488.4388161595605 643.4345266639388 487.8741753032709 644.4725179169277 487.25462 645.4776800000001 C 485.17026 648.9153900000001 482.71052 652.12215 480.76948999999996 655.6427800000001 C 479.4608941084604 657.7934710671918 478.65304856154177 660.2110710597904 478.40581999999995 662.7164200000001 C 478.1811096841311 665.2585022329001 479.2049905292514 667.7513708179342 481.1516 669.40164 C 483.24017 670.9865100000001 486.1036 671.0598500000001 488.69933 670.69064 C 491.29506 670.32143 493.87568 669.57743 496.49017999999995 669.77332 C 495.60871 664.78515 499.81553999999994 660.39504 500.86767 655.44006 C 501.16319999999996 654.0482900000001 501.20711 652.6053 501.60321999999996 651.2387600000001 C 502.0293095251689 649.9890717800055 502.57461028153085 648.7832631465342 503.23159 647.6379900000001 C 505.3264825546935 643.5583140533489 506.8070779282903 639.1914907773746 507.62541 634.6789900000001 C 507.72447999999997 634.1318400000001 494.83621999999997 634.0421200000001 493.62725 634.3035700000001 C 489.85445 635.11949 490.40626 639.23979 488.94606 642.36827 Z" stroke-linecap="round" />
</g>
		<g transform="matrix(1 0 0 1 -132.1 152.6)"  >
<path style="stroke: none; stroke-width: 1; stroke-dasharray: none; stroke-linecap: butt; stroke-dashoffset: 0; stroke-linejoin: miter; stroke-miterlimit: 4; fill: rgb(47,46,65); fill-rule: nonzero; opacity: 1;" vector-effect="non-scaling-stroke"  transform=" translate(-467.9, -602.6)" d="M 389.609 564.00242 C 385.92974 569.7601900000001 386.77749 577.3904200000001 389.36159 583.71587 C 391.94568999999996 590.0413199999999 396.05859 595.6331 398.87350999999995 601.85924 C 400.6681 605.82852 401.92650999999995 610.03724 403.94737999999995 613.89624 C 406.44976999999994 618.67481 410.10337999999996 622.88683 411.78258999999997 628.01295 C 412.85299999999995 631.2806 413.09858999999994 634.8619500000001 414.8325 637.83126 C 415.8805851319402 639.4181798163061 417.0767494050957 640.9021683134785 418.40493999999995 642.26331 C 422.13966234392245 646.5419541115676 424.943702644586 651.5505748949134 426.63893999999993 656.9710100000001 C 428.22365999999994 652.25012 432.96915999999993 649.1548100000001 437.84313999999995 648.1338400000001 C 442.71711999999997 647.11287 447.76732999999996 647.8064200000001 452.69813999999997 648.5029300000001 C 449.94755999999995 644.2419300000001 447.17037 639.9267600000001 445.53078 635.12741 C 443.94505 630.4856900000001 443.47719 625.54741 442.40904 620.7600500000001 C 440.21859 610.9426700000001 435.53931 601.8876900000001 430.90691 592.95905 L 454.7172 591.07045 C 458.60362465205253 590.6798461772217 462.510828338317 590.5349280986759 466.41551000000004 590.63656 C 472.56124 590.92624 478.58198 592.4327900000001 484.69500999999997 593.1291100000001 C 490.80803999999995 593.8254300000001 497.27482999999995 593.6431100000001 502.72259999999994 590.78375 C 492.3055114874683 605.7304116915232 486.880343085552 623.587766499251 487.22259999999994 641.8031800000002 C 491.9381161945348 638.1494757232573 498.0522343457286 636.8224770055277 503.85812122358936 638.1926322829665 C 509.6640081014502 639.5627875604054 514.5397382219962 643.4833260636233 517.12419 648.8597800000001 C 526.4553 636.1085700000001 525.34599 618.3569600000001 532.73986 604.3929500000002 C 534.2602400000001 601.5215600000001 536.12355 598.8470200000002 537.7645 596.0427800000001 C 540.8649923009212 590.4109365016064 543.5194971867913 584.544842310181 545.70365 578.4983400000001 C 547.77197 573.2083400000001 549.8554300000001 567.3221900000001 547.8717200000001 561.9999000000001 C 547.0481663881466 559.9805969247739 545.8486756774813 558.1360347600464 544.33698 556.5642200000001 C 540.0708400000001 551.8608800000001 534.1329000000001 548.3816600000001 527.78463 548.2367600000001 C 518.03939 548.0143300000001 509.98896 555.2379800000001 501.44036 559.9220700000001 C 491.235012924576 565.3460518674117 479.69189107186486 567.7398720993608 468.17125 566.82144 C 456.42883 565.9900100000001 445.21425 562.14629 434.02687 558.76121 C 428.4303476161285 556.989144074713 422.7418868050138 555.5217315940843 416.98651999999987 554.3654300000001 C 412.18901999999997 553.4655200000001 407.61994999999996 554.46235 402.89216999999996 555.6892 C 397.74478 557.025 392.57148 559.36639 389.609 564.00242 Z" stroke-linecap="round" />
</g>
		<g transform="matrix(1 0 0 1 -132.98 8.9)"  >
<path style="stroke: none; stroke-width: 1; stroke-dasharray: none; stroke-linecap: butt; stroke-dashoffset: 0; stroke-linejoin: miter; stroke-miterlimit: 4; fill: rgb(255,185,185); fill-rule: nonzero; opacity: 1;" vector-effect="non-scaling-stroke"  transform=" translate(-467.01, -458.89)" d="M 491.27963 458.89184 C 491.2686512504612 472.28898185167486 480.41086185167484 483.1467712504612 467.01372 483.15775 C 465.56779437278243 483.16022688276144 464.1246804022117 483.0302707752814 462.70246 482.76951 C 450.06650573693656 480.4875824104257 441.395780567576 468.7565050003931 442.9217506047922 456.0071540715101 C 444.44772064200833 443.25780314262715 455.6420507069464 433.90437454344567 468.45961342058564 434.6689788490935 C 481.27717613422493 435.43358315474126 491.280158745571 446.05149213155346 491.27963 458.89184 Z" stroke-linecap="round" />
</g>
		<g transform="matrix(1 0 0 1 -130.36 81.03)"  >
<path style="stroke: none; stroke-width: 1; stroke-dasharray: none; stroke-linecap: butt; stroke-dashoffset: 0; stroke-linejoin: miter; stroke-miterlimit: 4; fill: rgb(242,242,242); fill-rule: nonzero; opacity: 1;" vector-effect="non-scaling-stroke"  transform=" translate(-469.64, -531.03)" d="M 452.8586 481.94446 C 452.8586 481.94446 457.30735000000004 483.96661 458.92508000000004 485.58434 C 460.54281000000003 487.20207 465.39599000000004 496.09956999999997 473.48463000000004 490.43753 C 481.57327000000004 484.77549 482.38213 481.54001999999997 484.80872000000005 481.54001999999997 C 487.2353100000001 481.54001999999997 490.4707700000001 486.39320999999995 490.4707700000001 486.39320999999995 L 512.7145200000001 553.12447 C 506.7194369321909 559.8914401643091 499.77126075822275 565.7497167864117 492.08852000000013 570.51505 C 479.1467000000001 578.6036799999999 463.77829000000014 582.64805 456.4985200000001 579.41255 C 449.21875000000006 576.17705 435.4680600000001 573.7505 433.0414600000001 567.27955 C 430.6148600000001 560.8086 426.5705500000001 541.39591 426.5705500000001 541.39591 L 437.89465000000007 492.05521 Z" stroke-linecap="round" />
</g>
		<g transform="matrix(1 0 0 1 -166.96 72.71)"  >
<path style="stroke: none; stroke-width: 1; stroke-dasharray: none; stroke-linecap: butt; stroke-dashoffset: 0; stroke-linejoin: miter; stroke-miterlimit: 4; fill: rgb(47,46,65); fill-rule: nonzero; opacity: 1;" vector-effect="non-scaling-stroke"  transform=" translate(-433.04, -522.71)" d="M 449.73549 549.43449 C 451.49894 545.62542 451.75539000000003 541.3139 451.90456 537.1190799999999 C 452.1422575839804 532.9643632318421 452.0321406460299 528.7970459178624 451.57536 524.66068 C 450.85854 519.25004 449.09659999999997 514.0374099999999 447.98386 508.69413 C 447.0084052047092 504.0077540511163 446.53422416261935 499.23090986609003 446.56932 494.44422 C 446.58555 492.26003999999995 446.74367 489.96069 447.93387 488.12922 C 448.76419 486.85150999999996 450.06296000000003 485.86195 450.58181 484.42922 C 451.59916000000004 481.61993 449.08547000000004 478.67841 446.33070000000004 477.52153999999996 C 442.97558767243277 476.26350623660306 439.3051592215971 476.1161590778626 435.86 477.1012 C 432.4425003345519 478.0887614755265 429.14060766925843 479.4395290427832 426.01082 481.13039000000003 C 423.6441240715776 482.13974981900617 421.46763980727724 483.5467284069717 419.57563000000005 485.29039000000006 C 417.06480000000005 487.88858000000005 415.96076000000005 491.50732000000005 415.06928000000005 495.00876000000005 C 414.35576000000003 497.81122000000005 413.72163000000006 500.73353000000003 414.26450000000006 503.57398000000006 C 415.14608000000004 508.18658000000005 418.90628000000004 511.65573000000006 420.9107900000001 515.9025 C 423.23847000000006 520.83394 423.08170000000007 526.5807500000001 422.1558800000001 531.9547600000001 C 421.2300600000001 537.3287700000001 419.5865100000001 542.5832300000001 419.07970000000006 548.0127600000001 C 418.57289000000003 553.4422900000001 419.3508800000001 559.27876 422.75257000000005 563.5409000000001 C 424.13878000000005 565.2777400000001 427.89926 569.3939700000001 430.43696000000006 568.9282400000001 C 432.4306000000001 568.5623600000001 435.32096000000007 564.1736900000001 436.92696000000007 562.7825500000001 C 441.56647 558.76379 447.0713 555.18919 449.73549 549.43449 Z" stroke-linecap="round" />
</g>
		<g transform="matrix(1 0 0 1 -97.76 62.04)"  >
<path style="stroke: none; stroke-width: 1; stroke-dasharray: none; stroke-linecap: butt; stroke-dashoffset: 0; stroke-linejoin: miter; stroke-miterlimit: 4; fill: rgb(47,46,65); fill-rule: nonzero; opacity: 1;" vector-effect="non-scaling-stroke"  transform=" translate(-502.23, -512.04)" d="M 492.11409 479.30657 C 492.18491 483.81785 490.19638999999995 488.10595 487.85774999999995 491.96437000000003 C 485.51910999999996 495.82279000000005 482.77201999999994 499.47195000000005 481.0486599999999 503.64168 C 478.90719500618945 508.86136188427685 478.4699752927967 514.6242754736951 479.7994499999999 520.10729 C 480.293650302092 521.9749271539953 480.8893687733992 523.8142133588833 481.5839499999999 525.6169500000001 L 486.0156999999999 537.7731800000001 C 486.6119871363402 539.6845319413735 487.47729877725214 541.5012789679005 488.58559999999994 543.1687600000001 C 489.58761603014403 544.4459470011246 490.76320169522484 545.5768370853525 492.07824999999997 546.5286200000002 C 495.44455686384805 549.2469397442277 499.3183633714887 551.2678695112767 503.47378999999995 552.4735700000001 C 507.65814598654396 553.6702953908579 512.1243688743962 553.4155079186739 516.1454799999999 551.7506800000001 C 516.5727431973042 535.2712384613818 519.2203268573055 518.9246719150891 524.0166599999999 503.1528700000002 C 524.9027299999999 500.2413300000001 525.8710699999999 497.17612000000014 525.1875599999998 494.2104900000001 C 524.4219499999998 490.88866000000013 521.7537299999999 488.3946600000001 519.2173899999998 486.1170200000001 C 511.4606399999998 479.15145000000007 502.9307299999998 471.8347800000001 492.5478599999998 470.8957400000001 C 486.53866 470.35227 492.06288 476.04506 492.11409 479.30657 Z" stroke-linecap="round" />
</g>
		<g transform="matrix(1 0 0 1 -150.5 127.07)"  >
<path style="stroke: none; stroke-width: 1; stroke-dasharray: none; stroke-linecap: butt; stroke-dashoffset: 0; stroke-linejoin: miter; stroke-miterlimit: 4; fill: rgb(255,185,185); fill-rule: nonzero; opacity: 1;" vector-effect="non-scaling-stroke"  transform=" translate(-449.5, -577.07)" d="M 439.03277 573.34868 C 439.64798 574.5528899999999 440.03088 575.86443 440.63923000000005 577.0721299999999 C 441.53695268639353 578.6917643626298 442.64690952654433 580.1842846118652 443.93968000000007 581.5101299999999 C 449.3479300000001 587.5070099999999 455.9588600000001 593.4809999999999 464.0261300000001 593.8427399999999 C 464.82759761184246 593.9175921649602 465.6357314861618 593.8158722662699 466.3936500000001 593.5447399999999 C 467.7787018056989 592.8358029679366 468.7223973458841 591.4865465930616 468.9132300000001 589.9423499999999 C 469.4852300000001 586.8099 468.1024900000001 583.6842999999999 466.7180300000001 580.8167799999999 C 463.7174200000001 574.6018699999998 460.3411400000001 568.2293199999999 454.7230300000001 564.2210599999999 C 449.0391074166044 560.326368553012 441.8842856234593 559.2499652813583 435.3060300000001 561.2998799999998 C 432.37957000000006 562.2013799999999 427.52697000000006 563.7756099999998 431.4015500000001 566.4455699999997 C 434.341 568.4711 437.32865 570.013 439.03277 573.34868 Z" stroke-linecap="round" />
</g>
		<g transform="matrix(1 0 0 1 -137.14 48.79)"  >
<path style="stroke: none; stroke-width: 1; stroke-dasharray: none; stroke-linecap: butt; stroke-dashoffset: 0; stroke-linejoin: miter; stroke-miterlimit: 4; fill: rgb(255,185,185); fill-rule: nonzero; opacity: 1;" vector-effect="non-scaling-stroke"  transform=" translate(-462.85, -498.78)" d="M 473.906 494.22447 C 473.06398026533316 491.95034661483 471.77303272660083 489.8688739515628 470.11 488.10395 C 468.4326935792614 486.6859558163528 466.4469690690588 485.6799398700491 464.3115 485.16629 C 461.5445459063336 484.3758272136652 458.6828697781146 483.9656821862668 455.80528000000004 483.94715 C 452.37966000000006 483.92582000000004 448.40764 484.84470000000005 446.95294 487.94615000000005 C 445.79776000000004 490.40902000000006 446.6933 493.32544000000007 447.85638 495.78459000000004 C 448.3533007767715 497.0584489280955 449.1810821726914 498.17666752139536 450.25433 499.02389000000005 C 451.73159 500.02200000000005 453.64216999999996 499.99037000000004 455.39338999999995 500.32469000000003 C 458.1087197866656 501.0141063711678 460.68033417662787 502.1794226782657 462.98886999999996 503.76655000000005 L 468.98886999999996 507.39329000000004 L 479.29465 513.62274 C 479.02308 513.4585900000001 479.11965 506.3913 478.80309 505.23305000000005 C 477.78338 501.50193 475.48791 497.7578 473.906 494.22447 Z" stroke-linecap="round" />
</g>
		<g transform="matrix(1 0 0 1 -149.82 239.5)"  >
<path style="stroke: none; stroke-width: 1; stroke-dasharray: none; stroke-linecap: butt; stroke-dashoffset: 0; stroke-linejoin: miter; stroke-miterlimit: 4; fill: rgb(47,46,65); fill-rule: nonzero; opacity: 1;" vector-effect="non-scaling-stroke"  transform=" translate(-450.18, -689.5)" d="M 443.88546 671.23125 C 441.47399 674.5082500000001 441.95746 679.19259 439.82140000000004 682.6554000000001 C 437.9698 685.6570100000001 434.48027 687.2308400000001 432.16428 689.8905900000001 C 431.42527556705596 690.774214548219 430.7664582913902 691.7219169612755 430.19564 692.7224600000001 C 428.04723 696.3211200000001 426.30097 700.93326 428.41687 704.5511300000001 C 430.11898 707.46149 433.69675 708.59896 436.97797 709.3742100000001 C 441.12523000000004 710.3540800000001 445.43427 711.13831 449.62942000000004 710.38953 C 453.82457000000005 709.64075 457.92454000000004 707.0719300000001 459.42033000000004 703.08162 C 459.7143127237682 702.0782596279644 460.06381125417045 701.0920066108904 460.46721 700.12742 C 462.74102000000005 695.65102 469.87312000000003 695.60263 472.20021 691.15369 C 473.82874000000004 688.04024 472.33172 684.27681 470.83532 681.09769 L 466.265 671.3881 C 464.7483 668.16591 458.59985 670.01895 455.39452 669.24681 C 451.21408 668.23977 446.89284 667.13027 443.88546 671.23125 Z" stroke-linecap="round" />
</g>
		<g transform="matrix(1 0 0 1 -113.43 231.82)"  >
<path style="stroke: none; stroke-width: 1; stroke-dasharray: none; stroke-linecap: butt; stroke-dashoffset: 0; stroke-linejoin: miter; stroke-miterlimit: 4; fill: rgb(47,46,65); fill-rule: nonzero; opacity: 1;" vector-effect="non-scaling-stroke"  transform=" translate(-486.57, -681.83)" d="M 479.23589 662.89 C 477.3643677573403 664.3636682299782 475.93388225579054 666.3233748353524 475.10073 668.555 C 472.83885 673.7733099999999 472.06203 679.4939999999999 471.30781 685.13119 C 470.8778996527974 687.3735385692677 470.83366180420603 689.6727940706703 471.177 691.9300199999999 C 472.15169000000003 696.5338099999999 476.32348 699.9239699999999 480.81386000000003 701.33161 C 485.30424000000005 702.73925 490.12036 702.52253 494.82055 702.2919499999999 C 496.33690284559225 702.3307415236162 497.8422978488242 702.0250261723687 499.2234 701.3978199999999 C 501.58562 700.0955399999999 502.50840000000005 697.0334999999999 502.1034 694.36669 C 501.6984 691.69988 500.2414 689.3270399999999 498.81530000000004 687.0374599999999 C 497.3892000000001 684.7478799999999 495.9309 682.3762999999999 495.52246 679.7099999999999 C 494.83539 675.2249199999999 496.77422 668.64127 494.0188 664.5835599999999 C 491.25739 660.51711 482.92117 660.30722 479.23589 662.89 Z" stroke-linecap="round" />
</g>
		<g transform="matrix(1 0 0 1 -136.92 -2.05)"  >
<path style="stroke: none; stroke-width: 1; stroke-dasharray: none; stroke-linecap: butt; stroke-dashoffset: 0; stroke-linejoin: miter; stroke-miterlimit: 4; fill: rgb(47,46,65); fill-rule: nonzero; opacity: 1;" vector-effect="non-scaling-stroke"  transform=" translate(-463.08, -447.95)" d="M 490.66923 446.24574 C 490.23758298770053 444.7945880396583 489.2865858666435 443.55324846200983 487.99782000000005 442.75874 C 488.06434434168233 441.20425739977327 487.8737821513328 439.64945575844456 487.43382 438.15704999999997 C 485.96429 433.81260999999995 482.48303000000004 434.06163 479.19835 432.14088 C 477.77326 431.30751999999995 477.86129 430.57099 477.11942 429.20223 C 476.1473069575857 427.40792176341137 474.6912827359182 425.92234086154957 472.91687 424.91436999999996 C 470.80955 423.57172999999995 468.58508 422.18899999999996 466.09213 422.01906999999994 C 460.85318 421.6619799999999 456.83641 426.58960999999994 451.82913 428.17106999999993 C 449.62204 428.86806999999993 447.25044 428.8968499999999 445.0317 429.5558299999999 C 442.81296 430.2148099999999 440.59934 431.7882999999999 440.2687 434.0790799999999 C 440.11605000000003 435.1366599999999 440.38536000000005 436.2215999999999 440.23054 437.27888999999993 C 439.92272 439.38028999999995 438.07908000000003 440.85202999999996 436.8449 442.58043999999995 C 434.11568 446.40259999999995 434.42784 451.80224999999996 436.61039999999997 455.96090999999996 C 437.0703198421374 456.8214167807423 437.59650488177647 457.64482904789503 438.18418999999994 458.42368999999997 C 438.36625429939045 460.3893260110449 438.9307208377108 462.3004328074262 439.8458499999999 464.04954999999995 C 442.02840999999995 468.2082 445.78406999999993 471.31578999999994 449.70733999999993 473.89759999999995 C 449.3860223645181 472.5184034441151 449.19124127325114 471.1127609057765 449.1254199999999 469.69816 C 449.07004983336185 469.2267313521712 449.13137103474935 468.7489191058667 449.3039899999999 468.30674999999997 C 449.7409099999999 467.39342 450.8954099999999 467.15052 451.7756599999999 466.65031 C 453.5988599999999 465.61424999999997 454.3138199999999 463.3214 454.3665499999999 461.22504 C 454.4192799999999 459.12868 453.9749999999999 457.02885999999995 454.1946499999999 454.94341 C 454.2119557885018 453.9735753610171 454.6388131010072 453.0563443679056 455.3696499999999 452.41857 C 456.0425265611259 452.03471442732547 456.81120452408175 451.8514488370801 457.5848899999999 451.89042 C 461.3204599999999 451.73802 465.2235299999999 451.66942 468.51852999999994 449.90287 C 469.58117747016837 449.1970729775204 470.7234577966939 448.6192381199597 471.92163999999997 448.18137 C 474.72186 447.45115000000004 477.58383999999995 449.41382 479.19764 451.81593000000004 C 480.81144 454.2180400000001 481.61609 457.07655000000005 483.10506 459.55799 C 484.59403 462.03943 487.16636 464.25231 490.04523 463.95831000000004 C 490.3731673251954 463.95904742891673 490.68587769045246 463.8199943213735 490.90499 463.576 C 491.0291707408763 463.35291386891174 491.08429482781924 463.09797105766756 491.06337 462.84351000000004 L 491.22421 451.83893000000006 C 491.3578451932005 449.956549888759 491.1701729403806 448.0651545812707 490.66923 446.24574 Z" stroke-linecap="round" />
</g>
		<g transform="matrix(1 0 0 1 -172.82 84.81)"  >
<path style="stroke: none; stroke-width: 1; stroke-dasharray: none; stroke-linecap: butt; stroke-dashoffset: 0; stroke-linejoin: miter; stroke-miterlimit: 4; fill: rgb(47,46,65); fill-rule: nonzero; opacity: 1;" vector-effect="non-scaling-stroke"  transform=" translate(-427.18, -534.82)" d="M 413.875 503.80881 C 411.55976 507.22445 408.89023 510.5086 407.61763 514.43381 C 406.86963000000003 516.74093 406.63734 519.17981 406.0958 521.54393 C 404.29206 529.4182800000001 399.08106 536.4122600000001 398.55728 544.47355 C 398.373783354555 546.2648009452057 398.63682223238277 548.0736132363165 399.3229 549.73841 C 400.81772 552.9900100000001 404.39526 554.7036800000001 407.80781 555.7816 C 411.22036 556.85952 414.88513 557.63616 417.60898000000003 559.9573800000001 C 418.98034961614024 561.2718964712807 420.2239206777159 562.7135482459976 421.32298000000003 564.26296 C 425.76689091717867 569.7902773762283 431.74539736589963 573.8807809522197 438.50717000000003 576.02041 C 437.97302 572.3399 437.72236000000004 567.90369 440.66445000000004 565.62871 C 442.25705000000005 564.39724 444.38509000000005 564.17806 446.39080000000007 564.0047099999999 L 455.8681700000001 563.18571 C 449.54837692304596 557.0558271815006 442.58249985248654 551.6293281110513 435.09269 547.00137 C 432.4720700000001 545.3824699999999 429.61975000000007 543.6748 428.4231500000001 540.83637 C 427.80496303987684 539.0073980365784 427.5483434260784 537.0756644047186 427.6675800000001 535.14873 C 427.6023983331727 528.1002597889964 427.0055815668821 521.0667492775509 425.8822100000001 514.1080699999999 C 425.1020200000001 509.27631 424.0689200000001 504.48768 422.8873800000001 499.73807 C 422.55569000000014 498.40469 420.5952200000001 492.42383 418.1821000000001 493.82329 C 417.6137100000001 494.15292999999997 417.0818900000001 497.94689 416.7500100000001 498.73413 C 415.9600019422891 500.5156738346379 414.9970495703352 502.21538101579796 413.875 503.80881 Z" stroke-linecap="round" />
</g>
		<g transform="matrix(1 0 0 1 -100.68 71.28)"  >
<path style="stroke: none; stroke-width: 1; stroke-dasharray: none; stroke-linecap: butt; stroke-dashoffset: 0; stroke-linejoin: miter; stroke-miterlimit: 4; fill: rgb(47,46,65); fill-rule: nonzero; opacity: 1;" vector-effect="non-scaling-stroke"  transform=" translate(-499.32, -521.28)" d="M 523.03153 490.90112 L 526.9018199999999 498.95025 C 528.7664054960953 502.2598921746498 529.6150718212324 506.045345345746 529.34192 509.83425 L 529.57166 533.97914 C 529.7499901938824 537.2052385611898 529.4828093864604 540.440522209269 528.77766 543.59366 C 528.5364129086457 544.6327503092754 528.0818819348787 545.6103748303303 527.4428899999999 546.46454 C 526.7864261865859 547.200815302756 526.0130533307998 547.8238112294669 525.1538899999999 548.3084600000001 C 517.8290599999999 552.8851400000001 508.33088999999995 555.48638 500.59198999999995 551.6512200000001 C 498.81961294673994 550.7064098956556 497.13446618414247 549.6063657820844 495.55632999999995 548.364 C 492.47201999999993 546.07992 489.34218999999996 543.75127 487.03481999999997 540.68435 C 484.61990999999995 537.47449 483.23596999999995 533.63155 481.61132999999995 529.95792 C 478.69553034314885 523.3680375140609 474.92819249691547 517.1889508162548 470.4056599999999 511.5786799999999 C 469.6562585485345 510.8371258873945 469.16910777823443 509.8714257923848 469.01807999999994 508.82802 C 468.97007999999994 506.71166999999997 471.48107999999996 505.66981 473.43886999999995 504.86462 C 476.7836 503.48902 479.9376199999999 500.83462000000003 480.49751 497.26162 C 487.61003999999997 506.58878 495.45874 516.44369 506.68228 519.85196 C 507.0408832341027 520.0809822092489 507.49619650498 520.0949094089909 507.86812696590215 519.888232888611 C 508.24005742682436 519.681556368231 508.46869681774336 519.2875663043336 508.46361 518.8620999999999 C 509.10053 516.1964099999999 509.32586000000003 513.45151 509.79193000000004 510.75069999999994 C 510.64663845313015 505.83264193073177 512.2926978758769 501.0855944172451 514.6661 496.6941499999999 C 515.99519 494.232 520.29963 485.21951 523.03153 490.90112 Z" stroke-linecap="round" />
</g>
		<g transform="matrix(1 0 0 1 -169.98 82.57)"  >
<path style="stroke: none; stroke-width: 1; stroke-dasharray: none; stroke-linecap: butt; stroke-dashoffset: 0; stroke-linejoin: miter; stroke-miterlimit: 4; fill: rgb(0,0,0); fill-rule: nonzero; opacity: 0.1;" vector-effect="non-scaling-stroke"  transform=" translate(-430.02, -532.56)" d="M 426.99021 514.17772 C 427.0970386565252 519.8915440364273 425.88326281923827 525.5528904660629 423.44344 530.72072 C 422.8087084260864 531.8628480455167 422.34100669951664 533.0900805650006 422.05461 534.36496 C 421.63006 537.08433 423.17761 539.71696 424.94646 541.82568 C 428.43589962518314 545.9726958656266 432.96168160490157 549.1212752111056 438.06325 550.95101" stroke-linecap="round" />
</g>
		<g transform="matrix(1 0 0 1 -89.74 69.12)"  >
<path style="stroke: none; stroke-width: 1; stroke-dasharray: none; stroke-linecap: butt; stroke-dashoffset: 0; stroke-linejoin: miter; stroke-miterlimit: 4; fill: rgb(0,0,0); fill-rule: nonzero; opacity: 0.1;" vector-effect="non-scaling-stroke"  transform=" translate(-510.26, -519.12)" d="M 511.03266 509.362 C 510.46242 510.8955 510.98029 512.5914300000001 511.41978 514.1673900000001 C 512.6932585120577 518.7386521627652 513.2878113380888 523.4722945690586 513.1843700000001 528.2165000000001 C 513.2219318827738 528.3850651984096 513.1718697526275 528.5612012450092 513.0512645243604 528.6848115199339 C 512.9306592960932 528.8084217948585 512.7558084113269 528.8628027831082 512.5863700000001 528.8294000000001 C 510.7193700000001 528.9437800000001 508.5819300000001 528.9558700000001 507.3152400000001 527.5795300000001" stroke-linecap="round" />
</g>
		<g transform="matrix(1 0 0 1 228.3 261)"  >
<ellipse style="stroke: none; stroke-width: 1; stroke-dasharray: none; stroke-linecap: butt; stroke-dashoffset: 0; stroke-linejoin: miter; stroke-miterlimit: 4; fill: rgb(0,0,0); fill-rule: nonzero; opacity: 0.1;" vector-effect="non-scaling-stroke"  cx="0" cy="0" rx="126" ry="27" />
</g>
		<g transform="matrix(1 0 0 1 291.3 29)"  >
<polygon style="stroke: none; stroke-width: 1; stroke-dasharray: none; stroke-linecap: butt; stroke-dashoffset: 0; stroke-linejoin: miter; stroke-miterlimit: 4; fill: rgb(160,97,106); fill-rule: nonzero; opacity: 1;" vector-effect="non-scaling-stroke"  points="0,-9 -9,0 0,9 9,-9 0,-9 " />
</g>
		<g transform="matrix(1 0 0 1 299.83 -14.98)"  >
<path style="stroke: none; stroke-width: 1; stroke-dasharray: none; stroke-linecap: butt; stroke-dashoffset: 0; stroke-linejoin: miter; stroke-miterlimit: 4; fill: rgb(208,205,225); fill-rule: nonzero; opacity: 1;" vector-effect="non-scaling-stroke"  transform=" translate(-899.83, -435.02)" d="M 893.33043 391.96008 C 895.8562 392.99376 897.05743 395.81940000000003 898.00928 398.37708 L 909.68418 429.74854999999997 L 911.95664 435.85484999999994 C 913.07107 438.84941999999995 914.18617 441.8459399999999 915.12864 444.89897999999994 Q 916.02291 447.7957799999999 916.70743 450.75186999999994 C 917.1807760738675 452.4383133401546 917.3627897756127 454.1931797436398 917.24563 455.94086999999996 C 916.9301487470101 457.8637631393716 916.2282452256072 459.7027760150161 915.1823 461.34686999999997 C 911.1202995801513 468.4211815251101 905.3359308050129 474.3538885286595 898.3667200000001 478.59367999999995 C 897.5500509433912 473.3229182809014 894.1127995057782 468.82750055621307 889.2404000000001 466.65779999999995 L 895.2774000000002 463.33750999999995 C 896.5545805034494 462.7380094921444 897.7034382949936 461.8966129417265 898.6604000000002 460.85988 C 899.8415764950282 459.22559091954906 900.3078693057021 457.1814477857473 899.9522600000003 455.1966 C 899.5897474870778 453.2365069858331 898.9878369890599 451.32836530091953 898.1600500000003 449.51504 C 896.1347617452959 444.45971275744756 894.3771995813004 439.30120114708313 892.8946700000002 434.06095 C 892.0177800000002 430.96127 891.2122700000002 427.77566 889.4745400000003 425.06323 C 887.8981100000003 422.60258 885.6153200000002 420.63487999999995 884.1829300000003 418.08768 C 881.9999300000003 414.20568 882.0558800000002 409.42588 883.0198300000003 405.07773999999995 C 883.8336500000003 401.40673999999996 885.1984500000003 397.87384 886.3465800000002 394.30001999999996 C 887.24869 391.49193 890.62635 390.85342 893.33043 391.96008 Z" stroke-linecap="round" />
</g>
		<g transform="matrix(1 0 0 1 248.86 -89.04)"  >
<path style="stroke: none; stroke-width: 1; stroke-dasharray: none; stroke-linecap: butt; stroke-dashoffset: 0; stroke-linejoin: miter; stroke-miterlimit: 4; fill: rgb(47,46,65); fill-rule: nonzero; opacity: 1;" vector-effect="non-scaling-stroke"  transform=" translate(-848.85, -360.96)" d="M 837.66793 308.14366 C 833.02567 309.71142000000003 828.81998 313.37828 827.8693499999999 318.18502 C 827.42869 320.41316 827.69886 322.72943000000004 827.3280299999999 324.97025 C 826.4680299999999 330.16720000000004 822.3885599999999 334.13615000000004 818.6259699999999 337.82273000000004 C 814.86338 341.50931 810.9777899999999 345.79297 810.70318 351.05344 C 810.40248 356.81378 814.58006 362.21029000000004 813.85718 367.93299 C 813.01733 374.58160000000004 805.99502 378.88978000000003 804.2591 385.36249000000004 C 803.09995 389.68460000000005 804.52037 394.34037000000006 806.8573 398.15649 C 811.31056 405.42858 818.92254 410.36559 827.02872 413.01223000000005 C 835.1349 415.6588700000001 843.76817 416.21568 852.2950000000001 416.30503000000004 C 862.6774 416.41381000000007 873.95 415.52247000000006 881.75079 408.67021000000005 C 886.2067125359454 404.7210958789368 889.0050740907982 399.2335138707719 889.58479 393.30775000000006 C 890.32587 385.37041000000005 887.01304 377.16901000000007 889.29815 369.53168000000005 C 890.73628 364.72517000000005 894.3427399999999 360.33547000000004 893.8045199999999 355.34737000000007 C 893.2782799999999 350.47026000000005 889.0186399999999 347.01326000000006 886.09642 343.07324000000006 C 883.3680099999999 339.39454000000006 881.71242 335.05024000000003 880.0898 330.76718000000005 L 874.53796 316.11259000000007 C 873.44656 313.23176000000007 872.24809 310.2018800000001 869.81587 308.3110900000001 C 865.26252 304.7714000000001 857.94093 305.4668600000001 852.61664 306.1969200000001 C 847.67722 306.87422 842.418 306.53951 837.66793 308.14366 Z" stroke-linecap="round" />
</g>
		<g transform="matrix(1 0 0 1 255.17 -79.96)"  >
<path style="stroke: none; stroke-width: 1; stroke-dasharray: none; stroke-linecap: butt; stroke-dashoffset: 0; stroke-linejoin: miter; stroke-miterlimit: 4; fill: rgb(160,97,106); fill-rule: nonzero; opacity: 1;" vector-effect="non-scaling-stroke"  transform=" translate(-855.17, -370.05)" d="M 841.96266 356.439 C 841.96266 356.439 842.50608 372.74143000000004 840.8758300000001 374.37168 C 839.2455800000001 376.00193 847.39683 386.87021000000004 847.39683 386.87021000000004 L 862.06902 386.32680000000005 L 869.67683 380.34924000000007 L 863.15583 371.6546000000001 C 863.15583 371.6546000000001 860.43876 357.5258300000001 862.61242 354.2653400000001 C 864.7860800000001 351.0048500000001 841.96266 356.439 841.96266 356.439 Z" stroke-linecap="round" />
</g>
		<g transform="matrix(1 0 0 1 255.17 -79.96)"  >
<path style="stroke: none; stroke-width: 1; stroke-dasharray: none; stroke-linecap: butt; stroke-dashoffset: 0; stroke-linejoin: miter; stroke-miterlimit: 4; fill: rgb(0,0,0); fill-rule: nonzero; opacity: 0.1;" vector-effect="non-scaling-stroke"  transform=" translate(-855.17, -370.05)" d="M 841.96266 356.439 C 841.96266 356.439 842.50608 372.74143000000004 840.8758300000001 374.37168 C 839.2455800000001 376.00193 847.39683 386.87021000000004 847.39683 386.87021000000004 L 862.06902 386.32680000000005 L 869.67683 380.34924000000007 L 863.15583 371.6546000000001 C 863.15583 371.6546000000001 860.43876 357.5258300000001 862.61242 354.2653400000001 C 864.7860800000001 351.0048500000001 841.96266 356.439 841.96266 356.439 Z" stroke-linecap="round" />
</g>
		<g transform="matrix(1 0 0 1 216.15 39.31)"  >
<polygon style="stroke: none; stroke-width: 1; stroke-dasharray: none; stroke-linecap: butt; stroke-dashoffset: 0; stroke-linejoin: miter; stroke-miterlimit: 4; fill: rgb(160,97,106); fill-rule: nonzero; opacity: 1;" vector-effect="non-scaling-stroke"  points="-8.15,-7.06 1.09,13.59 8.15,4.89 -5.98,-13.59 -8.15,-7.06 " />
</g>
		<g transform="matrix(1 0 0 1 186.54 255.31)"  >
<polygon style="stroke: none; stroke-width: 1; stroke-dasharray: none; stroke-linecap: butt; stroke-dashoffset: 0; stroke-linejoin: miter; stroke-miterlimit: 4; fill: rgb(160,97,106); fill-rule: nonzero; opacity: 1;" vector-effect="non-scaling-stroke"  points="-3.26,-16.3 -7.06,4.89 -13.59,14.13 -9.78,16.3 -3.26,15.22 4.35,12.5 7.61,0 13.59,-16.3 -3.26,-16.3 " />
</g>
		<g transform="matrix(1 0 0 1 257.72 243.36)"  >
<polygon style="stroke: none; stroke-width: 1; stroke-dasharray: none; stroke-linecap: butt; stroke-dashoffset: 0; stroke-linejoin: miter; stroke-miterlimit: 4; fill: rgb(160,97,106); fill-rule: nonzero; opacity: 1;" vector-effect="non-scaling-stroke"  points="-4.89,-17.39 -7.06,13.04 -1.63,17.39 7.06,9.78 7.06,-12.5 -4.89,-17.39 " />
</g>
		<g transform="matrix(1 0 0 1 250.93 -106.88)"  >
<circle style="stroke: none; stroke-width: 1; stroke-dasharray: none; stroke-linecap: butt; stroke-dashoffset: 0; stroke-linejoin: miter; stroke-miterlimit: 4; fill: rgb(160,97,106); fill-rule: nonzero; opacity: 1;" vector-effect="non-scaling-stroke"  cx="0" cy="0" r="19.56292" />
</g>
		<g transform="matrix(1 0 0 1 246.39 -38.08)"  >
<path style="stroke: none; stroke-width: 1; stroke-dasharray: none; stroke-linecap: butt; stroke-dashoffset: 0; stroke-linejoin: miter; stroke-miterlimit: 4; fill: rgb(208,205,225); fill-rule: nonzero; opacity: 1;" vector-effect="non-scaling-stroke"  transform=" translate(-846.39, -411.92)" d="M 866.02481 369.43768 C 864.8386240420837 368.8667240077864 863.4626839194373 368.8402593387307 862.25542 369.36518 C 861.0685806281115 369.89067530589347 859.9163885461599 370.4911723314927 858.80583 371.16303 C 855.9507993503239 372.64845573394945 852.7137649755527 373.2371655511087 849.51855 372.85208 C 849.1431284988756 372.8236488984519 848.775688459254 372.729077166429 848.43319 372.57273 C 848.0699870287946 372.3468663237609 847.735910901743 372.0772329818736 847.4384699999999 371.76989 C 845.0303605627134 369.81338776954647 841.5049391332667 370.11729006581777 839.46718 372.45703999999995 C 838.89257 373.17292 838.49918 374.02763999999996 837.87218 374.69810999999993 C 836.2481799999999 376.4346499999999 833.56846 376.5049899999999 831.1909099999999 376.5006899999999 C 826.2617856159268 376.3633970709667 821.3338967829403 376.81507335461265 816.51186 377.8461299999999 C 811.6677457900138 378.8914263274311 807.2067900449432 381.2552517945219 803.62169 384.6765299999999 C 802.6430982711772 385.5966410223834 801.8637449492853 386.70779206697927 801.3318599999999 387.9412199999999 C 800.6761799999999 389.6320899999999 800.7623799999999 391.53134999999986 800.1730199999998 393.2464699999999 C 799.5166999999998 395.1564099999999 798.0628399999998 396.72357999999986 797.4744199999998 398.65551999999985 C 797.0312199999997 400.11064999999985 797.0929999999997 401.73058999999984 796.3514199999997 403.05873999999983 C 799.5270999999998 405.8074599999998 802.2176399999997 409.47301999999985 805.3933099999997 412.22173999999984 C 807.4959499999997 414.04173999999983 809.6974599999998 416.01048999999983 810.4877799999997 418.6767399999998 C 810.8431487171697 420.32061318927447 811.0009856741111 422.00103494632856 810.9579399999997 423.6823299999998 C 811.3509399999997 431.72045999999983 815.7102999999996 439.01217999999983 820.5853399999996 445.4153299999998 C 821.9218934214132 447.3144893214345 823.5215941617811 449.0140419388509 825.3364499999997 450.4629999999998 C 827.8002378299975 452.14067881555155 830.5984479197061 453.2642868219924 833.5382899999996 453.7564099999998 C 839.0898599999996 454.8919699999998 844.8040899999996 454.8861999999998 850.4702899999996 454.8298099999998 C 856.3262099999996 454.77152999999976 862.2851499999996 454.6473899999998 867.8514599999996 452.82769999999977 C 870.6845098744852 452.0371590915086 873.233122669709 450.4545452890713 875.1979099999996 448.26576999999975 C 877.4876999999997 445.45376999999974 878.3809999999996 441.38590999999974 881.5046499999996 439.54376999999977 C 882.260935360041 439.19725520700706 882.9772487330408 438.76943477494274 883.6409299999997 438.2678699999998 C 884.2770468074323 437.5775805889954 884.7273893397809 436.7370155194479 884.9497099999996 435.8250299999998 C 886.0423208053758 432.4119308074124 886.6445302540967 428.8609226490521 886.7382899999997 425.2784299999998 C 886.6578003678875 423.1286095975094 886.8036020815347 420.97628470064916 887.1732899999996 418.8569599999998 C 887.713363855766 416.98929314464374 888.5004550648725 415.2021212355099 889.5136899999997 413.5428399999998 L 895.9867599999997 401.8032399999998 C 896.5128599999997 400.8490999999998 896.3762999999997 399.4451599999998 896.4239499999996 398.35662999999977 C 896.3759823939607 396.7870413035975 895.8940887326204 395.26143065072165 895.0317399999997 393.94907999999975 C 890.8332881820625 386.5286711483538 884.2378202745666 380.75525837098905 876.3270599999996 377.57573999999977 C 875.7036067065541 377.3638567076682 875.1098722098033 377.07296141944863 874.5603599999996 376.71015999999975 C 873.9130835435035 376.16595106711725 873.3657227087308 375.5129799734721 872.9428999999996 374.7806199999998 C 871.22549 372.19207 869.12705 369.276 866.02481 369.43768 Z" stroke-linecap="round" />
</g>
		<g transform="matrix(1 0 0 1 199.69 -3.16)"  >
<path style="stroke: none; stroke-width: 1; stroke-dasharray: none; stroke-linecap: butt; stroke-dashoffset: 0; stroke-linejoin: miter; stroke-miterlimit: 4; fill: rgb(208,205,225); fill-rule: nonzero; opacity: 1;" vector-effect="non-scaling-stroke"  transform=" translate(-799.69, -446.84)" d="M 785.3493 433.37388 C 784.0727965220839 436.4774051070834 783.1354050099892 439.7097855850699 782.55345 443.01473 C 781.9288229033201 447.5807843913877 782.6651284097118 452.22964340486453 784.67017 456.37919999999997 C 788.15851 463.55974999999995 795.02624 468.42987 799.87343 474.77286999999995 C 804.37707 480.66630999999995 807.0590599999999 487.73016999999993 810.95893 494.03941 C 810.27883 492.43332999999996 811.105 490.57403 812.21793 489.23107999999996 C 813.33086 487.88812999999993 814.75354 486.77439 815.56957 485.23292999999995 C 816.125022557775 484.039242965411 816.4742529169345 482.7600874955406 816.60244 481.44974999999994 C 817.18458 477.53754999999995 817.49885 473.2866399999999 815.5042 469.87114999999994 C 814.00272 467.3001499999999 811.40951 465.59248999999994 809.35604 463.43658999999997 C 805.1919038041434 458.9877139319821 803.3894049736886 452.8249030503332 804.49991 446.83329999999995 C 804.89524 444.79945999999995 805.62208 442.84692999999993 806.16668 440.84788999999995 C 806.8404194262913 438.16124806931026 807.3505002516132 435.4361962861621 807.69411 432.68775999999997 L 810.1412700000001 415.88009999999997 C 810.7921500000001 411.4097 811.34265 406.46252999999996 808.8108400000001 402.7211 C 808.317079001249 401.9378288056003 807.6339833933706 401.29154212052174 806.8245900000001 400.84188 C 806.1549817835892 400.53562831438524 805.4420104732425 400.3348521391778 804.71099 400.24668 C 802.04799 399.81141 798.4402600000001 398.64504000000005 797.13999 401.4988 C 795.57068 404.94312 794.4775 408.69768 793.1637900000001 412.24903 Z" stroke-linecap="round" />
</g>
		<g transform="matrix(1 0 0 1 244.9 120.07)"  >
<path style="stroke: none; stroke-width: 1; stroke-dasharray: none; stroke-linecap: butt; stroke-dashoffset: 0; stroke-linejoin: miter; stroke-miterlimit: 4; fill: rgb(47,46,65); fill-rule: nonzero; opacity: 1;" vector-effect="non-scaling-stroke"  transform=" translate(-844.9, -570.07)" d="M 878.6142 442.5702 C 878.6142 442.5702 846.30998 448.81946 838.7022 448.81946 L 825.11681 448.81946 C 825.11681 448.81946 820.22608 457.5141 820.22608 466.20873 C 820.22608 474.90336 788.16462 596.62823 788.16462 596.62823 C 788.16462 596.62823 757.7334 696.6165100000001 791.42511 697.15992 C 825.1168200000001 697.70333 846.30998 699.3335800000001 846.85339 687.92192 C 847.3968 676.5102599999999 850.6573 529.24486 850.6573 529.24486 L 855.7296699999999 604.96811 C 857.0929360088263 623.7143763562417 855.6370781203525 642.5590965959824 851.41067 660.8735300000001 C 848.97802 671.14093 849.3554 682.3972000000001 861.52567 684.6614300000001 C 884.89249 689.0087500000001 914.23688 685.2048400000001 914.23688 677.0536300000001 C 914.23688 668.9024200000001 899.0212700000001 487.9453500000001 899.0212700000001 487.9453500000001 C 899.0212700000001 487.9453500000001 891.4134700000001 461.31804000000005 887.0661500000001 459.1443500000001 C 882.7188300000001 456.9706600000001 878.6142 442.5702 878.6142 442.5702 Z" stroke-linecap="round" />
</g>
		<g transform="matrix(1 0 0 1 185.67 261.56)"  >
<path style="stroke: none; stroke-width: 1; stroke-dasharray: none; stroke-linecap: butt; stroke-dashoffset: 0; stroke-linejoin: miter; stroke-miterlimit: 4; fill: rgb(47,46,65); fill-rule: nonzero; opacity: 1;" vector-effect="non-scaling-stroke"  transform=" translate(-785.67, -711.56)" d="M 777.29633 718.35309 L 789.25145 714.00578 L 797.40267 693.35602 L 806.0972999999999 692.26919 C 806.0972999999999 692.26919 801.2065699999999 702.59407 798.4894999999999 704.22431 C 795.7724299999999 705.8545499999999 791.4251099999999 719.4399199999999 791.4251099999999 719.4399199999999 C 791.4251099999999 719.4399199999999 793.59877 724.87407 783.2738899999999 727.0477299999999 C 772.9490099999999 729.2213899999998 765.3412099999999 730.8516299999999 765.3412099999999 730.8516299999999 C 765.3412099999999 730.8516299999999 764.25438 728.6779699999998 769.1451099999999 723.2438199999999 C 774.0358399999999 717.80967 779.7465199999999 708.6611999999999 779.7465199999999 708.6611999999999 Z" stroke-linecap="round" />
</g>
		<g transform="matrix(1 0 0 1 257.88 252.86)"  >
<path style="stroke: none; stroke-width: 1; stroke-dasharray: none; stroke-linecap: butt; stroke-dashoffset: 0; stroke-linejoin: miter; stroke-miterlimit: 4; fill: rgb(47,46,65); fill-rule: nonzero; opacity: 1;" vector-effect="non-scaling-stroke"  transform=" translate(-857.88, -702.86)" d="M 850.6573 693.356 L 848.4836399999999 709.65844 C 848.4836399999999 709.65844 854.4612 718.35307 856.0914399999999 718.35307 C 857.7216799999999 718.35307 866.4163199999999 710.74527 866.4163199999999 710.74527 C 866.4163199999999 710.74527 865.8729 702.59405 866.4163199999999 700.42039 C 866.9597399999999 698.24673 868.0465599999999 687.92186 866.4163199999999 687.37844 C 864.78608 686.8350199999999 864.7860699999999 699.48974 864.7860699999999 699.48974 L 857.7216899999999 706.94137 L 850.9101999999998 702.85725 Z" stroke-linecap="round" />
</g>
		<g transform="matrix(1 0 0 1 252.56 -118.29)"  >
<ellipse style="stroke: none; stroke-width: 1; stroke-dasharray: none; stroke-linecap: butt; stroke-dashoffset: 0; stroke-linejoin: miter; stroke-miterlimit: 4; fill: rgb(47,46,65); fill-rule: nonzero; opacity: 1;" vector-effect="non-scaling-stroke"  cx="0" cy="0" rx="21.19317" ry="11.41171" />
</g>
		<g transform="matrix(1 0 0 1 -473.4 163.57)"  >
<path style="stroke: none; stroke-width: 1; stroke-dasharray: none; stroke-linecap: butt; stroke-dashoffset: 0; stroke-linejoin: miter; stroke-miterlimit: 4; fill: rgb(63,61,86); fill-rule: nonzero; opacity: 1;" vector-effect="non-scaling-stroke"  transform=" translate(-126.59, -613.57)" d="M 81.696 555.65948 C 81.696 619.67561 121.85634999999999 671.4766500000001 171.48684 671.4766500000001" stroke-linecap="round" />
</g>
		<g transform="matrix(1 0 0 1 -378.41 162.92)"  >
<path style="stroke: none; stroke-width: 1; stroke-dasharray: none; stroke-linecap: butt; stroke-dashoffset: 0; stroke-linejoin: miter; stroke-miterlimit: 4; fill: rgb(4,109,181); fill-rule: nonzero; opacity: 1;" vector-effect="non-scaling-stroke"  transform=" translate(-221.59, -612.92)" d="M 171.48684 671.47665 C 171.48684 606.74124 216.30346 554.35817 271.6882 554.35817" stroke-linecap="round" />
</g>
		<g transform="matrix(1 0 0 1 -457.14 166.47)"  >
<path style="stroke: none; stroke-width: 1; stroke-dasharray: none; stroke-linecap: butt; stroke-dashoffset: 0; stroke-linejoin: miter; stroke-miterlimit: 4; fill: rgb(4,109,181); fill-rule: nonzero; opacity: 1;" vector-effect="non-scaling-stroke"  transform=" translate(-142.86, -616.47)" d="M 114.22891 561.46265 C 114.22891 622.2711700000001 139.83841 671.4766500000001 171.48684 671.4766500000001" stroke-linecap="round" />
</g>
		<g transform="matrix(1 0 0 1 -370.6 146.66)"  >
<path style="stroke: none; stroke-width: 1; stroke-dasharray: none; stroke-linecap: butt; stroke-dashoffset: 0; stroke-linejoin: miter; stroke-miterlimit: 4; fill: rgb(63,61,86); fill-rule: nonzero; opacity: 1;" vector-effect="non-scaling-stroke"  transform=" translate(-229.4, -596.65)" d="M 171.48684 671.47665 C 171.48684 588.7591799999999 223.28784000000002 521.82526 287.304 521.82526" stroke-linecap="round" />
</g>
		<g transform="matrix(1 0 0 1 -423.71 227.44)"  >
<path style="stroke: none; stroke-width: 1; stroke-dasharray: none; stroke-linecap: butt; stroke-dashoffset: 0; stroke-linejoin: miter; stroke-miterlimit: 4; fill: rgb(168,168,168); fill-rule: nonzero; opacity: 1;" vector-effect="non-scaling-stroke"  transform=" translate(-176.29, -677.44)" d="M 152.59716 672.29318 C 152.59716 672.29318 165.33098 671.90099 169.16863 669.1682500000001 C 173.00628 666.4355100000001 188.75645 663.17246 189.70848 667.5551800000001 C 190.66051000000002 671.9379000000001 208.84504 689.3528200000001 194.46862000000002 689.46878 C 180.09220000000002 689.58474 161.06422 687.2294300000001 157.23395000000002 684.8962700000001 C 153.40368000000004 682.56311 152.59716 672.29318 152.59716 672.29318 Z" stroke-linecap="round" />
</g>
		<g transform="matrix(1 0 0 1 -423.71 230.88)"  >
<path style="stroke: none; stroke-width: 1; stroke-dasharray: none; stroke-linecap: butt; stroke-dashoffset: 0; stroke-linejoin: miter; stroke-miterlimit: 4; fill: rgb(0,0,0); fill-rule: nonzero; opacity: 0.2;" vector-effect="non-scaling-stroke"  transform=" translate(-176.29, -680.87)" d="M 194.72518 687.94314 C 180.34876 688.05914 161.32079 685.70381 157.49052 683.37063 C 154.57352 681.5938 153.41119 675.2181 153.02227 672.27663 C 152.75292 672.2882099999999 152.59716 672.2932 152.59716 672.2932 C 152.59716 672.2932 153.40369 682.5631099999999 157.23397 684.8962899999999 C 161.06425 687.2294699999999 180.09221 689.5847899999999 194.46863 689.4687899999999 C 198.61853 689.4353199999999 200.05198 687.9588499999999 199.97326999999999 685.7720599999999 C 199.39675 687.09323 197.814 687.91824 194.72518 687.94314 Z" stroke-linecap="round" />
</g>
</g>
</g>
<g transform="matrix(2.97 0 0 2.97 711.58 297.03)" id="8c888b1f-09a5-46f0-ba36-d1cbcabaae94"  >
<circle style="stroke: rgb(242,242,242); stroke-width: 0; stroke-dasharray: none; stroke-linecap: butt; stroke-dashoffset: 0; stroke-linejoin: miter; stroke-miterlimit: 4; fill: rgb(242,242,242); fill-rule: nonzero; opacity: 1;" vector-effect="non-scaling-stroke"  cx="0" cy="0" r="35" />
</g>
<g transform="matrix(0 0 0 0 0 0)"  >
<g style=""   >
</g>
</g>
<g transform="matrix(NaN NaN NaN NaN 0 0)"  >
<g style=""   >
</g>
</g>
<g transform="matrix(NaN NaN NaN NaN 0 0)"  >
<g style=""   >
</g>
</g>
<g transform="matrix(NaN NaN NaN NaN 0 0)"  >
<g style=""   >
</g>
</g>
</svg>